<?xml version="1.0" encoding="UTF-8"?>
<svg xmlns="http://www.w3.org/2000/svg" xmlns:xlink="http://www.w3.org/1999/xlink" viewBox="0 0 128 128">
<g id="surface5578984">
<path style=" stroke:none;fill-rule:nonzero;fill:rgb(32.549021%,34.901962%,40.000001%);fill-opacity:1;" d="M 64 115.199219 C 35.722656 115.199219 12.800781 92.277344 12.800781 64 C 12.800781 35.722656 35.722656 12.800781 64 12.800781 C 92.277344 12.800781 115.199219 35.722656 115.199219 64 C 115.199219 92.277344 92.277344 115.199219 64 115.199219 Z M 64 115.199219 "/>
<path style=" stroke:none;fill-rule:nonzero;fill:rgb(90.196079%,29.019609%,9.803922%);fill-opacity:1;" d="M 68.265625 52.800781 L 55.464844 52.800781 C 49.28125 52.800781 44.265625 47.785156 44.265625 41.601562 C 44.265625 35.414062 49.28125 30.398438 55.464844 30.398438 L 68.265625 30.398438 Z M 68.265625 52.800781 "/>
<path style=" stroke:none;fill-rule:nonzero;fill:rgb(48.627451%,30.19608%,100%);fill-opacity:1;" d="M 66.667969 75.199219 L 55.464844 75.199219 C 49.28125 75.199219 44.265625 70.1875 44.265625 64 C 44.265625 57.8125 49.28125 52.800781 55.464844 52.800781 L 66.667969 52.800781 Z M 66.667969 75.199219 "/>
<path style=" stroke:none;fill-rule:nonzero;fill:rgb(40.000001%,73.333335%,41.568628%);fill-opacity:1;" d="M 55.464844 97.601562 C 49.28125 97.601562 44.265625 92.585938 44.265625 86.398438 C 44.265625 80.214844 49.28125 75.199219 55.464844 75.199219 L 66.667969 75.199219 L 66.667969 86.398438 C 66.667969 92.585938 61.652344 97.601562 55.464844 97.601562 Z M 55.464844 97.601562 "/>
<path style=" stroke:none;fill-rule:nonzero;fill:rgb(100%,43.921569%,26.274511%);fill-opacity:1;" d="M 77.867188 52.800781 L 66.667969 52.800781 L 66.667969 30.398438 L 77.867188 30.398438 C 84.050781 30.398438 89.066406 35.414062 89.066406 41.601562 C 89.066406 47.785156 84.050781 52.800781 77.867188 52.800781 Z M 77.867188 52.800781 "/>
<path style=" stroke:none;fill-rule:nonzero;fill:rgb(16.078432%,71.372551%,96.470588%);fill-opacity:1;" d="M 89.066406 64 C 89.066406 70.1875 84.050781 75.199219 77.867188 75.199219 C 71.679688 75.199219 66.667969 70.1875 66.667969 64 C 66.667969 57.8125 71.679688 52.800781 77.867188 52.800781 C 84.050781 52.800781 89.066406 57.8125 89.066406 64 Z M 89.066406 64 "/>
</g>
</svg>
